HIERARCHY
ROOT Pelvis
{
	OFFSET 0.000000 0.000000 0.000000
	CHANNELS 6 Xposition Yposition Zposition Xrotation Yrotation Zrotation
	JOINT LeftUpLeg_virtual
	{
		OFFSET 0.000000 0.000000 0.000000
		CHANNELS 3 Xrotation Yrotation Zrotation
		JOINT LeftUpLeg
		{
			OFFSET 8.479700 -4.795502 -0.379100
			CHANNELS 3 Xrotation Yrotation Zrotation
			JOINT LeftLeg
			{
				OFFSET 0.024144 -32.555107 0.112900
				CHANNELS 3 Xrotation Yrotation Zrotation
				JOINT LeftFoot
				{
					OFFSET -0.024144 -32.638630 -3.012600
					CHANNELS 3 Xrotation Yrotation Zrotation
					JOINT LeftToeBase
					{
						OFFSET 0.970200 -13.225400 11.864200
						CHANNELS 3 Xrotation Yrotation Zrotation
						End Site
						{
							OFFSET 0 0 0
						}
					}
				}
			}
		}
	}
	JOINT RightUpLeg_virtual
	{
		OFFSET 0.000000 0.000000 0.000000
		CHANNELS 3 Xrotation Yrotation Zrotation
		JOINT RightUpLeg
		{
			OFFSET -8.479700 -4.795502 -0.379100
			CHANNELS 3 Xrotation Yrotation Zrotation
			JOINT RightLeg
			{
				OFFSET -0.023144 -32.555092 0.112900
				CHANNELS 3 Xrotation Yrotation Zrotation
				JOINT RightFoot
				{
					OFFSET 0.023144 -32.638641 -3.012700
					CHANNELS 3 Xrotation Yrotation Zrotation
					JOINT RightToeBase
					{
						OFFSET -0.970200 -13.225400 11.864200
						CHANNELS 3 Xrotation Yrotation Zrotation
						End Site
						{
							OFFSET 0 0 0
						}
					}
				}
			}
		}
	}
	JOINT Hips_virtual
	{
		OFFSET 0.000000 0.000000 0.000000
		CHANNELS 3 Xrotation Yrotation Zrotation
		JOINT Hips
		{
			OFFSET -0.000000 -0.000000 -0.000000
			CHANNELS 3 Xrotation Yrotation Zrotation
			JOINT Spine
			{
				OFFSET 0.000000 7.722000 1.166200
				CHANNELS 3 Xrotation Yrotation Zrotation
				JOINT Spine1
				{
					OFFSET 0.000000 12.024101 0.248800
					CHANNELS 3 Xrotation Yrotation Zrotation
					JOINT Spine2
					{
						OFFSET 0.000000 11.502998 -0.491200
						CHANNELS 3 Xrotation Yrotation Zrotation
						JOINT Neck_virtual
						{
							OFFSET 0.000000 0.000000 0.000000
							CHANNELS 3 Xrotation Yrotation Zrotation
							JOINT Neck
							{
								OFFSET 0.000000 18.430702 -3.123100
								CHANNELS 3 Xrotation Yrotation Zrotation
								JOINT Head
								{
									OFFSET 0.000000 9.051102 1.034000
									CHANNELS 3 Xrotation Yrotation Zrotation
									End Site
									{
										OFFSET 0 0 0
									}
								}
							}
						}
						JOINT LeftShoulder_virtual
						{
							OFFSET 0.000000 0.000000 0.000000
							CHANNELS 3 Xrotation Yrotation Zrotation
							JOINT LeftShoulder
							{
								OFFSET 6.197800 13.665199 -4.064700
								CHANNELS 3 Xrotation Yrotation Zrotation
								JOINT LeftArm
								{
									OFFSET 7.778100 -0.187103 -1.709300
									CHANNELS 3 Xrotation Yrotation Zrotation
									JOINT LeftForeArm
									{
										OFFSET 22.049376 0.000000 0.000000
										CHANNELS 3 Xrotation Yrotation Zrotation
										JOINT LeftHand
										{
											OFFSET 23.009392 0.000000 0.000000
											CHANNELS 3 Xrotation Yrotation Zrotation
											End Site
											{
												OFFSET 0 0 0
											}
										}
									}
								}
							}
						}
						JOINT RightShoulder_virtual
						{
							OFFSET 0.000000 0.000000 0.000000
							CHANNELS 3 Xrotation Yrotation Zrotation
							JOINT RightShoulder
							{
								OFFSET -6.197800 13.665199 -4.064700
								CHANNELS 3 Xrotation Yrotation Zrotation
								JOINT RightArm
								{
									OFFSET -7.778100 -0.187103 -1.709300
									CHANNELS 3 Xrotation Yrotation Zrotation
									JOINT RightForeArm
									{
										OFFSET -22.049376 0.000000 0.000000
										CHANNELS 3 Xrotation Yrotation Zrotation
										JOINT RightHand
										{
											OFFSET -23.009392 0.000000 0.000000
											CHANNELS 3 Xrotation Yrotation Zrotation
											End Site
											{
												OFFSET 0 0 0
											}
										}
									}
								}
							}
						}
					}
				}
			}
		}
	}
}
MOTION
Frames: 10
Frame Time: 0.03333333
11.438704 53.024872 -31.358143 0.000000 0.000000 0.000000 49.393346 -31.872337 16.532314 -66.921538 -5.411785 0.840783 104.665744 -4.396178 0.450108 8.969964 -6.895334 -9.822184 0.000000 0.000000 0.000000 49.393346 -31.872337 16.532314 -103.199364 -9.626658 -18.754760 107.709699 -11.355748 6.469022 -29.771172 -10.096074 6.523963 0.000000 0.000000 0.000000 49.393346 -31.872337 16.532314 0.000000 -0.000002 0.000000 30.543192 10.767330 3.040507 6.860045 2.066867 1.129952 0.000000 0.000000 0.000000 6.835854 2.135325 1.146299 -7.949807 -4.235516 1.372940 0.000000 0.000000 0.000000 6.835854 2.135325 1.146299 5.673063 -23.734083 -9.066838 -27.862355 -10.438777 -41.186461 0.000008 -38.893474 -0.000004 0.000000 0.000000 0.000000 6.835854 2.135325 1.146299 -0.454815 29.350989 14.140359 -42.011930 48.862736 12.344903 0.000001 14.620235 0.000003 0.000000 0.000000 0.000000 
11.517750 53.233982 -31.284485 0.000000 0.000000 0.000000 48.978918 -32.435650 16.539409 -68.351697 -5.910978 1.452538 105.670669 -4.192111 0.063356 10.006097 -6.472717 -9.460045 0.000000 0.000000 0.000000 48.978918 -32.435650 16.539409 -102.360931 -9.658471 -18.502156 107.192873 -11.305951 6.448372 -29.626400 -10.026891 6.691576 0.000000 0.000000 0.000000 48.978918 -32.435650 16.539409 -0.000001 0.000003 -0.000002 30.585976 10.741956 2.753611 6.860446 2.055451 1.057258 0.000000 0.000000 0.000000 6.836467 2.123751 1.073445 -7.756133 -4.044933 1.169384 0.000000 0.000000 0.000000 6.836467 2.123751 1.073445 5.677198 -23.780716 -9.018295 -27.386376 -9.567762 -41.312341 -0.000000 -39.455175 -0.000002 0.000000 0.000000 0.000000 6.836467 2.123751 1.073445 -0.367078 28.852372 13.849369 -40.871596 48.371509 12.524499 -0.000005 16.563847 0.000020 0.000000 0.000000 0.000000 
11.583885 53.457047 -31.168842 0.000000 0.000000 0.000000 48.514543 -32.999639 16.552922 -69.741928 -6.393871 1.896619 106.584795 -4.323796 -0.043423 11.036495 -5.746273 -9.650770 0.000000 0.000000 0.000000 48.514543 -32.999639 16.552922 -101.411493 -9.648511 -18.278215 106.658574 -11.244292 6.425730 -29.541074 -9.942892 6.896629 0.000000 0.000000 0.000000 48.514543 -32.999639 16.552922 0.000001 0.000000 0.000000 30.693490 10.738292 2.420735 6.900534 2.048714 0.955047 0.000000 0.000000 0.000000 6.876926 2.117281 0.970882 -7.571700 -3.834396 0.935136 0.000000 0.000000 0.000000 6.876926 2.117281 0.970882 5.697506 -23.899185 -8.949577 -27.065933 -8.692579 -41.259841 0.000024 -40.071586 0.000017 0.000000 0.000000 0.000000 6.876926 2.117281 0.970882 -0.244508 28.311464 13.397238 -39.815884 48.075256 12.700982 0.000004 18.268891 0.000001 0.000000 0.000000 0.000000 
11.631854 53.714127 -31.011662 0.000000 0.000000 0.000000 47.961909 -33.578737 16.594020 -70.985890 -6.883816 2.202008 107.339585 -4.547507 0.015796 11.915303 -5.312453 -10.226644 0.000000 0.000000 0.000000 47.961909 -33.578737 16.594020 -100.311040 -9.586361 -18.022957 106.074136 -11.181403 6.368841 -29.524305 -9.902308 7.087517 0.000000 0.000000 0.000000 47.961909 -33.578737 16.594020 0.000003 0.000001 -0.000001 30.899591 10.736992 2.005170 6.923764 2.044797 0.861484 0.000000 0.000000 0.000000 6.900704 2.113029 0.877188 -7.371933 -3.600000 0.660436 0.000000 0.000000 0.000000 6.900704 2.113029 0.877188 5.758442 -24.143189 -8.911113 -26.806433 -7.789663 -40.855572 -0.000010 -40.789739 -0.000021 0.000000 0.000000 0.000000 6.900704 2.113029 0.877188 -0.090566 27.840278 12.771131 -38.951613 47.768769 12.863072 -0.000014 19.980755 0.000030 0.000000 0.000000 0.000000 
11.660443 54.008999 -30.822014 0.000000 0.000000 0.000000 47.370777 -34.172915 16.655579 -72.186944 -7.378740 2.267832 108.037064 -5.028793 0.384080 12.545386 -4.797189 -11.223187 0.000000 0.000000 0.000000 47.370777 -34.172915 16.655579 -99.092337 -9.490710 -17.699576 105.411546 -11.060358 6.283608 -29.546739 -9.977204 7.252606 0.000000 0.000000 0.000000 47.370777 -34.172915 16.655579 -0.000000 0.000001 0.000001 31.158189 10.741751 1.521907 6.973893 2.045118 0.742952 0.000000 0.000000 0.000000 6.951637 2.112851 0.758489 -7.147398 -3.347712 0.366290 0.000000 0.000000 0.000000 6.951637 2.112851 0.758489 5.880273 -24.606313 -8.861672 -26.458075 -6.906703 -40.061576 -0.000036 -41.627438 -0.000017 0.000000 0.000000 0.000000 6.951637 2.112851 0.758489 0.069418 27.515624 12.075464 -38.169143 47.324561 12.915036 0.000000 21.820986 0.000004 0.000000 0.000000 0.000000 
11.664835 54.351593 -30.594757 0.000000 0.000000 0.000000 46.788882 -34.762296 16.723554 -73.452319 -7.880719 2.299274 108.749377 -5.571096 0.883782 12.873969 -4.143651 -12.185898 0.000000 0.000000 0.000000 46.788882 -34.762296 16.723554 -97.763202 -9.385127 -17.318068 104.637590 -10.832462 6.193067 -29.603396 -10.195002 7.378743 0.000000 0.000000 0.000000 46.788882 -34.762296 16.723554 0.000000 0.000002 0.000000 31.426469 10.755735 1.005283 7.024806 2.051999 0.621938 0.000000 0.000000 0.000000 7.003239 2.119292 0.637306 -6.911159 -3.084712 0.067837 0.000000 0.000000 0.000000 7.003239 2.119292 0.637306 6.045105 -25.214668 -8.800714 -26.016346 -6.058596 -38.964187 0.000015 -42.536393 0.000006 0.000000 0.000000 0.000000 7.003239 2.119292 0.637306 0.224723 27.343972 11.370313 -37.477648 46.790470 12.871087 0.000006 23.721764 -0.000013 0.000000 0.000000 0.000000 
11.634972 54.749855 -30.327938 0.000000 0.000000 0.000000 46.299718 -35.287373 16.782512 -74.948144 -8.456995 2.657215 109.514768 -5.928223 1.256592 12.921416 -3.482729 -12.461351 0.000000 0.000000 0.000000 46.299718 -35.287373 16.782512 -96.366797 -9.317298 -16.889512 103.742569 -10.562732 6.136103 -29.728118 -10.501377 7.421526 0.000000 0.000000 0.000000 46.299718 -35.287373 16.782512 0.000004 0.000000 0.000000 31.631607 10.764831 0.513932 7.073832 2.060562 0.500870 0.000000 0.000000 0.000000 7.052985 2.127535 0.515820 -6.700965 -2.817860 -0.200204 0.000000 0.000000 0.000000 7.052985 2.127535 0.515820 6.184828 -25.737505 -8.719600 -25.567734 -5.399186 -37.802911 -0.000002 -43.339292 0.000009 0.000000 0.000000 0.000000 7.052985 2.127535 0.515820 0.371333 27.275252 10.690504 -37.139140 46.241955 12.993760 0.000010 25.612277 0.000006 0.000000 0.000000 0.000000 
11.579231 55.185463 -30.029263 0.000000 0.000000 0.000000 45.962037 -35.679085 16.830662 -76.696925 -9.178354 3.493978 110.197268 -6.079068 1.453731 13.006533 -2.856064 -12.168444 0.000000 0.000000 0.000000 45.962037 -35.679085 16.830662 -95.000814 -9.285777 -16.465201 102.761719 -10.243858 6.143615 -29.938109 -10.878148 7.316690 0.000000 0.000000 0.000000 45.962037 -35.679085 16.830662 -0.000001 -0.000003 0.000003 31.719948 10.755069 0.103477 7.071244 2.064656 0.419907 0.000000 0.000000 0.000000 7.050821 2.131153 0.434498 -6.538644 -2.555737 -0.414315 0.000000 0.000000 0.000000 7.050821 2.131153 0.434498 6.264717 -26.067543 -8.619207 -25.257034 -4.968949 -36.750922 0.000012 -43.810749 0.000006 0.000000 0.000000 0.000000 7.050821 2.131153 0.434498 0.513511 27.217541 10.027216 -36.990249 45.765338 13.211051 0.000013 27.456794 -0.000014 0.000000 0.000000 0.000000 
11.516617 55.641541 -29.693420 0.000000 0.000000 0.000000 45.698586 -35.904129 16.843158 -78.502540 -10.094299 4.708770 110.606328 -6.060855 1.558768 13.403536 -2.269461 -11.926221 0.000000 0.000000 0.000000 45.698586 -35.904129 16.843158 -93.658778 -9.253669 -16.132627 101.724493 -9.880945 6.185611 -30.206952 -11.308496 7.151238 0.000000 0.000000 0.000000 45.698586 -35.904129 16.843158 0.000002 0.000000 0.000001 31.741576 10.719903 -0.201681 7.064895 2.055939 0.350514 0.000000 0.000000 0.000000 7.044984 2.121780 0.364700 -6.408407 -2.310494 -0.579008 0.000000 0.000000 0.000000 7.044984 2.121780 0.364700 6.320876 -26.347269 -8.474964 -25.121728 -4.615670 -35.775383 -0.000010 -44.098860 0.000002 0.000000 0.000000 0.000000 7.044984 2.121780 0.364700 0.673114 27.111014 9.277729 -37.002007 45.385606 13.518105 -0.000011 29.168412 0.000027 0.000000 0.000000 0.000000 
11.450624 56.120628 -29.313396 0.000000 0.000000 0.000000 45.430976 -35.937245 16.800838 -80.201577 -11.134432 6.145221 110.666837 -5.931581 1.706202 14.033829 -1.712805 -12.040485 0.000000 0.000000 0.000000 45.430976 -35.937245 16.800838 -92.334670 -9.296128 -15.854858 100.605763 -9.564672 6.043027 -30.457900 -11.882992 7.115603 0.000000 0.000000 0.000000 45.430976 -35.937245 16.800838 -0.000001 0.000001 -0.000001 31.751934 10.650060 -0.391891 7.061773 2.031535 0.302380 0.000000 0.000000 0.000000 7.042433 2.096748 0.316213 -6.317386 -2.089253 -0.709535 0.000000 0.000000 0.000000 7.042433 2.096748 0.316213 6.372464 -26.659471 -8.259900 -25.166609 -4.279522 -34.823317 0.000014 -44.263570 0.000011 0.000000 0.000000 0.000000 7.042433 2.096748 0.316213 0.870763 26.853941 8.332474 -37.384692 45.161983 14.142870 -0.000001 30.620810 0.000003 0.000000 0.000000 0.000000 
